<?xml version="1.0" encoding="UTF-8" standalone="no"?>
<!-- Created with Inkscape (http://www.inkscape.org/) -->

<svg
   version="1.1"
   id="svg1"
   width="761.08942"
   height="117.21486"
   viewBox="0 0 761.08942 117.21486"
   sodipodi:docname="EPFL_Logo_Digital_RGB_PROD.eps"
   xmlns:inkscape="http://www.inkscape.org/namespaces/inkscape"
   xmlns:sodipodi="http://sodipodi.sourceforge.net/DTD/sodipodi-0.dtd"
   xmlns="http://www.w3.org/2000/svg"
   xmlns:svg="http://www.w3.org/2000/svg">
  <defs
     id="defs1" />
  <sodipodi:namedview
     id="namedview1"
     pagecolor="#505050"
     bordercolor="#ffffff"
     borderopacity="1"
     inkscape:showpageshadow="0"
     inkscape:pageopacity="0"
     inkscape:pagecheckerboard="1"
     inkscape:deskcolor="#505050" />
  <g
     id="g1"
     inkscape:groupmode="layer"
     inkscape:label="1"
     transform="translate(-18.763027,-130.33423)">
    <g
       id="group-R5"
       transform="matrix(0.38327507,0,0,0.38327507,499.31857,117.67166)"
       inkscape:export-filename="../../../../../projects/ol/vmcai-presentation/fig/lara.svg"
       inkscape:export-xdpi="96"
       inkscape:export-ydpi="96">
      <path
         id="path2"
         d="m 612.34,1451.03 h 305.672 v 315.62 H 1637.6 v 262.03 H 612.34 v -577.65"
         style="fill:#ee2939;fill-opacity:1;fill-rule:nonzero;stroke:none"
         transform="matrix(0.13333333,0,0,-0.13333333,0,352)" />
      <path
         id="path3"
         d="M 612.34,611.352 H 1637.6 V 873.391 H 918.012 V 1189 H 612.34 V 611.352"
         style="fill:#ee2939;fill-opacity:1;fill-rule:nonzero;stroke:none"
         transform="matrix(0.13333333,0,0,-0.13333333,0,352)" />
      <path
         id="path4"
         d="m 1576.07,1189 v 262.03 H 918.012 V 1189 h 658.058"
         style="fill:#ee2939;fill-opacity:1;fill-rule:nonzero;stroke:none"
         transform="matrix(0.13333333,0,0,-0.13333333,0,352)" />
      <path
         id="path5"
         d="m 2698.55,1527.71 c -15.23,-20.63 -35.42,-36.63 -60.54,-47.92 -25.16,-11.31 -54.27,-18.94 -87.35,-22.85 -33.09,-3.96 -67.48,-5.91 -103.22,-5.91 h -242.16 v 315.57 h 242.16 c 35.74,0 70.13,-1.99 103.22,-5.9 33.08,-3.93 62.19,-11.57 87.35,-22.86 25.12,-11.3 45.31,-27.27 60.54,-47.92 15.2,-20.64 22.84,-47.7 22.84,-81.11 0,-33.42 -7.64,-60.45 -22.84,-81.1 z m 212.41,370.8 c -39.07,39.1 -89.68,70.59 -151.87,94.42 -62.21,23.82 -137.65,35.75 -226.28,35.75 H 1899.6 V 611.352 h 305.68 v 577.708 h 327.53 c 88.63,0 164.07,11.9 226.28,35.73 62.19,23.85 112.8,55.28 151.87,94.42 39.02,39.1 67.48,84.02 85.35,134.74 17.87,50.7 26.79,102.35 26.79,154.91 0,53.76 -8.92,105.7 -26.79,155.82 -17.87,50.11 -46.33,94.71 -85.35,133.83"
         style="fill:#ee2939;fill-opacity:1;fill-rule:nonzero;stroke:none"
         transform="matrix(0.13333333,0,0,-0.13333333,0,352)" />
      <path
         id="path6"
         d="M 4769.95,873.391 V 2028.68 H 4464.27 V 611.352 h 1025.27 v 262.039 h -719.59"
         style="fill:#ee2939;fill-opacity:1;fill-rule:nonzero;stroke:none"
         transform="matrix(0.13333333,0,0,-0.13333333,0,352)" />
      <path
         id="path7"
         d="m 3217.62,1451.03 h 305.69 v 315.62 h 719.59 v 262.03 H 3217.62 v -577.65"
         style="fill:#ee2939;fill-opacity:1;fill-rule:nonzero;stroke:none"
         transform="matrix(0.13333333,0,0,-0.13333333,0,352)" />
      <path
         id="path8"
         d="m 3217.62,611.352 h 305.69 V 1189 H 3217.62 V 611.352"
         style="fill:#ee2939;fill-opacity:1;fill-rule:nonzero;stroke:none"
         transform="matrix(0.13333333,0,0,-0.13333333,0,352)" />
      <path
         id="path9"
         d="m 4181.36,1189 v 262.03 H 3523.31 V 1189 h 658.05"
         style="fill:#ee2939;fill-opacity:1;fill-rule:nonzero;stroke:none"
         transform="matrix(0.13333333,0,0,-0.13333333,0,352)" />
    </g>
    <rect
       style="fill:#ee2939;fill-opacity:1;stroke-width:1.07307"
       id="rect9"
       width="27.402643"
       height="27.402643"
       x="18.763027"
       y="130.33423" />
    <text
       xml:space="preserve"
       style="font-style:normal;font-variant:normal;font-weight:normal;font-stretch:normal;font-size:38.1535px;line-height:0;font-family:'Suisse Int\'l';-inkscape-font-specification:'Suisse Int\'l';letter-spacing:-0.0786915px;word-spacing:-0.0286151px;fill:#000000;fill-opacity:1;stroke-width:1.07307"
       x="80.132225"
       y="158.22841"
       id="text11"><tspan
         sodipodi:role="line"
         id="tspan11"
         x="80.132225"
         y="158.22841"
         style="stroke-width:1.07307">Laboratory For</tspan></text>
    <text
       xml:space="preserve"
       style="font-style:normal;font-variant:normal;font-weight:normal;font-stretch:normal;font-size:38.1535px;line-height:0;font-family:'Suisse Int\'l';-inkscape-font-specification:'Suisse Int\'l';letter-spacing:-0.0786915px;word-spacing:-0.0286151px;fill:#000000;fill-opacity:1;stroke-width:1.07307"
       x="80.132225"
       y="198.34897"
       id="text12"><tspan
         sodipodi:role="line"
         id="tspan12"
         x="80.132225"
         y="198.34897"
         style="stroke-width:1.07307">Automated Reasoning</tspan></text>
    <text
       xml:space="preserve"
       style="font-style:normal;font-variant:normal;font-weight:normal;font-stretch:normal;font-size:38.1535px;line-height:0;font-family:'Suisse Int\'l';-inkscape-font-specification:'Suisse Int\'l';letter-spacing:-0.0786915px;word-spacing:-0.0286151px;fill:#000000;fill-opacity:1;stroke-width:1.07307"
       x="80.132225"
       y="240.87222"
       id="text13"><tspan
         sodipodi:role="line"
         id="tspan13"
         x="80.132225"
         y="240.87222"
         style="stroke-width:1.07307">And Analysis</tspan></text>
  </g>
</svg>
